<svg width="34" height="34" viewBox="0 0 34 34" fill="none" xmlns="http://www.w3.org/2000/svg">
<rect width="34" height="34" rx="4" fill="#0080FF"/>
<path d="M26.9196 16.6C24.8996 11.91 21.0996 9 16.9996 9C12.8996 9 9.09958 11.91 7.07958 16.6C7.02452 16.7262 6.99609 16.8623 6.99609 17C6.99609 17.1377 7.02452 17.2738 7.07958 17.4C9.09958 22.09 12.8996 25 16.9996 25C21.0996 25 24.8996 22.09 26.9196 17.4C26.9746 17.2738 27.0031 17.1377 27.0031 17C27.0031 16.8623 26.9746 16.7262 26.9196 16.6ZM16.9996 23C13.8296 23 10.8296 20.71 9.09958 17C10.8296 13.29 13.8296 11 16.9996 11C20.1696 11 23.1696 13.29 24.8996 17C23.1696 20.71 20.1696 23 16.9996 23ZM16.9996 13C16.2085 13 15.4351 13.2346 14.7773 13.6741C14.1195 14.1136 13.6068 14.7384 13.3041 15.4693C13.0013 16.2002 12.9221 17.0044 13.0764 17.7804C13.2308 18.5563 13.6117 19.269 14.1712 19.8284C14.7306 20.3878 15.4433 20.7688 16.2192 20.9231C16.9951 21.0775 17.7994 20.9983 18.5303 20.6955C19.2612 20.3928 19.8859 19.8801 20.3255 19.2223C20.765 18.5645 20.9996 17.7911 20.9996 17C20.9996 15.9391 20.5782 14.9217 19.828 14.1716C19.0779 13.4214 18.0604 13 16.9996 13ZM16.9996 19C16.604 19 16.2173 18.8827 15.8884 18.6629C15.5595 18.4432 15.3032 18.1308 15.1518 17.7654C15.0004 17.3999 14.9608 16.9978 15.038 16.6098C15.1152 16.2219 15.3057 15.8655 15.5854 15.5858C15.8651 15.3061 16.2214 15.1156 16.6094 15.0384C16.9974 14.9613 17.3995 15.0009 17.7649 15.1522C18.1304 15.3036 18.4428 15.56 18.6625 15.8889C18.8823 16.2178 18.9996 16.6044 18.9996 17C18.9996 17.5304 18.7889 18.0391 18.4138 18.4142C18.0387 18.7893 17.53 19 16.9996 19Z" fill="#F3F6F9"/>
</svg>
