<svg width="18" height="18" viewBox="0 0 18 18" fill="none" xmlns="http://www.w3.org/2000/svg">
<path d="M16.8525 14.1152L16.1025 11.2202L13.74 2.52774C13.6889 2.33599 13.564 2.17229 13.3925 2.07249C13.221 1.97268 13.0169 1.9449 12.825 1.99524L9.9225 2.74524C9.85323 2.66847 9.76884 2.60686 9.67462 2.56426C9.5804 2.52167 9.47839 2.49902 9.375 2.49774H1.875C1.67609 2.49774 1.48532 2.57675 1.34467 2.71741C1.20402 2.85806 1.125 3.04882 1.125 3.24774V15.2477C1.125 15.4466 1.20402 15.6374 1.34467 15.7781C1.48532 15.9187 1.67609 15.9977 1.875 15.9977H9.375C9.57391 15.9977 9.76468 15.9187 9.90533 15.7781C10.046 15.6374 10.125 15.4466 10.125 15.2477V9.24774L11.775 15.4127C11.8189 15.5764 11.917 15.7203 12.0532 15.8211C12.1894 15.9218 12.3557 15.9735 12.525 15.9677C12.5898 15.9751 12.6552 15.9751 12.72 15.9677L16.3425 15.0002C16.4383 14.9746 16.528 14.9303 16.6065 14.8698C16.6851 14.8093 16.7508 14.7338 16.8 14.6477C16.8791 14.4818 16.8977 14.2934 16.8525 14.1152ZM4.8525 14.5277H2.6025V13.0277H4.8525V14.5277ZM4.8525 11.5277H2.6025V7.02774H4.8525V11.5277ZM4.8525 5.52774H2.6025V4.02774H4.8525V5.52774ZM8.6025 14.5277H6.3525V13.0277H8.6025V14.5277ZM8.6025 11.5277H6.3525V7.02774H8.6025V11.5277ZM8.6025 5.52774H6.3525V4.02774H8.6025V5.52774ZM10.29 4.22274L12.465 3.63774L12.855 5.08524L10.68 5.67024L10.29 4.22274ZM12.2325 11.4677L11.07 7.11774L13.245 6.53274L14.4075 10.8827L12.2325 11.4677ZM12.9825 14.3627L12.5925 12.9152L14.7675 12.3302L15.1575 13.7777L12.9825 14.3627Z" fill="black" fill-opacity="0.8"/>
</svg>
