<svg width="18" height="18" viewBox="0 0 18 18" fill="none" xmlns="http://www.w3.org/2000/svg">
<path d="M17.25 6.98988C17.2969 6.79718 17.2702 6.59387 17.175 6.41988C16.9319 5.99811 16.6079 5.62849 16.2217 5.33223C15.8354 5.03597 15.3944 4.81889 14.9241 4.69346C14.4537 4.56803 13.9632 4.53672 13.4807 4.60131C12.9982 4.66591 12.5333 4.82514 12.1125 5.06988L10.5 5.99988L6.74996 4.23738C6.64335 4.18215 6.52503 4.15332 6.40496 4.15332C6.28489 4.15332 6.16657 4.18215 6.05996 4.23738L3.80996 5.53488C3.69876 5.59902 3.60589 5.69063 3.54023 5.80094C3.47457 5.91124 3.43833 6.03656 3.43496 6.16488C3.43133 6.29416 3.46119 6.42218 3.52164 6.53651C3.58209 6.65084 3.67108 6.7476 3.77996 6.81738L6.25496 8.37738L4.94996 9.12738L1.36496 9.56238C1.22084 9.58021 1.085 9.63949 0.973928 9.73303C0.862852 9.82656 0.78132 9.95034 0.739228 10.0893C0.697137 10.2283 0.696298 10.3765 0.736812 10.516C0.777326 10.6554 0.857451 10.7801 0.96746 10.8749L3.62246 13.1699C3.972 13.5035 4.41964 13.7157 4.89915 13.7751C5.37865 13.8346 5.86456 13.738 6.28496 13.4999L16.875 7.44738C16.9652 7.40053 17.045 7.33581 17.1095 7.25716C17.1739 7.17852 17.2217 7.08758 17.25 6.98988ZM5.60246 12.2399C5.45839 12.3192 5.29226 12.3489 5.12964 12.3245C4.96703 12.3001 4.81693 12.2229 4.70246 12.1049L3.27746 10.8824L5.32496 10.6349C5.42558 10.622 5.52253 10.5888 5.60996 10.5374L8.12996 9.08988C8.24223 9.02509 8.33579 8.9323 8.40151 8.82057C8.46723 8.70884 8.50287 8.58199 8.50496 8.45238C8.5065 8.32366 8.47488 8.1967 8.41314 8.08374C8.35141 7.97077 8.26163 7.8756 8.15246 7.80738L5.67746 6.23988L6.50246 5.76738L10.2525 7.50738C10.3591 7.56261 10.4774 7.59144 10.5975 7.59144C10.7175 7.59144 10.8358 7.56261 10.9425 7.50738L12.8625 6.39738C13.2559 6.17688 13.7066 6.07972 14.1559 6.11851C14.6053 6.15729 15.0326 6.33023 15.3825 6.61488L5.60246 12.2399Z" fill="black" fill-opacity="0.8"/>
</svg>
