<svg width="18" height="18" viewBox="0 0 18 18" fill="none" xmlns="http://www.w3.org/2000/svg">
<path d="M16.5 1.5H1.5C1.30109 1.5 1.11032 1.57902 0.96967 1.71967C0.829018 1.86032 0.75 2.05109 0.75 2.25V8.25C0.75 8.44891 0.829018 8.63968 0.96967 8.78033C1.11032 8.92098 1.30109 9 1.5 9H3.75V15.75C3.75 15.9489 3.82902 16.1397 3.96967 16.2803C4.11032 16.421 4.30109 16.5 4.5 16.5H13.5C13.6989 16.5 13.8897 16.421 14.0303 16.2803C14.171 16.1397 14.25 15.9489 14.25 15.75V9H16.5C16.6989 9 16.8897 8.92098 17.0303 8.78033C17.171 8.63968 17.25 8.44891 17.25 8.25V2.25C17.25 2.05109 17.171 1.86032 17.0303 1.71967C16.8897 1.57902 16.6989 1.5 16.5 1.5ZM5.25 15V13.5C5.64782 13.5 6.02936 13.658 6.31066 13.9393C6.59196 14.2206 6.75 14.6022 6.75 15H5.25ZM12.75 15H11.25C11.25 14.6022 11.408 14.2206 11.6893 13.9393C11.9706 13.658 12.3522 13.5 12.75 13.5V15ZM12.75 12C11.9544 12 11.1913 12.3161 10.6287 12.8787C10.0661 13.4413 9.75 14.2044 9.75 15H8.25C8.25 14.2044 7.93393 13.4413 7.37132 12.8787C6.80871 12.3161 6.04565 12 5.25 12V6H12.75V12ZM15.75 7.5H14.25V5.25C14.25 5.05109 14.171 4.86032 14.0303 4.71967C13.8897 4.57902 13.6989 4.5 13.5 4.5H4.5C4.30109 4.5 4.11032 4.57902 3.96967 4.71967C3.82902 4.86032 3.75 5.05109 3.75 5.25V7.5H2.25V3H15.75V7.5ZM9 11.25C9.44501 11.25 9.88002 11.118 10.25 10.8708C10.62 10.6236 10.9084 10.2722 11.0787 9.86104C11.249 9.4499 11.2936 8.9975 11.2068 8.56105C11.12 8.12459 10.9057 7.72368 10.591 7.40901C10.2763 7.09434 9.87541 6.88005 9.43895 6.79323C9.0025 6.70642 8.5501 6.75097 8.13896 6.92127C7.72783 7.09157 7.37643 7.37996 7.12919 7.74997C6.88196 8.11998 6.75 8.55499 6.75 9C6.75 9.59674 6.98705 10.169 7.40901 10.591C7.83097 11.0129 8.40326 11.25 9 11.25ZM9 8.25C9.14834 8.25 9.29334 8.29399 9.41668 8.3764C9.54002 8.45881 9.63614 8.57594 9.69291 8.71299C9.74968 8.85003 9.76453 9.00083 9.73559 9.14632C9.70665 9.2918 9.63522 9.42544 9.53033 9.53033C9.42544 9.63522 9.2918 9.70665 9.14632 9.73559C9.00083 9.76453 8.85003 9.74968 8.71299 9.69291C8.57594 9.63614 8.45881 9.54002 8.3764 9.41668C8.29399 9.29334 8.25 9.14834 8.25 9C8.25 8.80109 8.32902 8.61032 8.46967 8.46967C8.61032 8.32902 8.80109 8.25 9 8.25Z" fill="black" fill-opacity="0.8"/>
</svg>
