<svg width="18" height="18" viewBox="0 0 18 18" fill="none" xmlns="http://www.w3.org/2000/svg">
<path d="M15.75 1.5H11.25C11.0511 1.5 10.8603 1.57902 10.7197 1.71967C10.579 1.86032 10.5 2.05109 10.5 2.25C10.5 2.44891 10.579 2.63968 10.7197 2.78033C10.8603 2.92098 11.0511 3 11.25 3H15V6.75C15 6.94891 15.079 7.13968 15.2197 7.28033C15.3603 7.42098 15.5511 7.5 15.75 7.5C15.9489 7.5 16.1397 7.42098 16.2803 7.28033C16.421 7.13968 16.5 6.94891 16.5 6.75V2.25C16.5 2.05109 16.421 1.86032 16.2803 1.71967C16.1397 1.57902 15.9489 1.5 15.75 1.5ZM15.75 10.5C15.5511 10.5 15.3603 10.579 15.2197 10.7197C15.079 10.8603 15 11.0511 15 11.25V15H11.25C11.0511 15 10.8603 15.079 10.7197 15.2197C10.579 15.3603 10.5 15.5511 10.5 15.75C10.5 15.9489 10.579 16.1397 10.7197 16.2803C10.8603 16.421 11.0511 16.5 11.25 16.5H15.75C15.9489 16.5 16.1397 16.421 16.2803 16.2803C16.421 16.1397 16.5 15.9489 16.5 15.75V11.25C16.5 11.0511 16.421 10.8603 16.2803 10.7197C16.1397 10.579 15.9489 10.5 15.75 10.5ZM9 4.5C8.40326 4.5 7.83097 4.73705 7.40901 5.15901C6.98705 5.58097 6.75 6.15326 6.75 6.75V7.5C6.35218 7.5 5.97064 7.65804 5.68934 7.93934C5.40804 8.22064 5.25 8.60218 5.25 9V12C5.25 12.3978 5.40804 12.7794 5.68934 13.0607C5.97064 13.342 6.35218 13.5 6.75 13.5H11.25C11.6478 13.5 12.0294 13.342 12.3107 13.0607C12.592 12.7794 12.75 12.3978 12.75 12V9C12.75 8.60218 12.592 8.22064 12.3107 7.93934C12.0294 7.65804 11.6478 7.5 11.25 7.5V6.75C11.25 6.15326 11.0129 5.58097 10.591 5.15901C10.169 4.73705 9.59674 4.5 9 4.5ZM8.25 6.75C8.25 6.55109 8.32902 6.36032 8.46967 6.21967C8.61032 6.07902 8.80109 6 9 6C9.19891 6 9.38968 6.07902 9.53033 6.21967C9.67098 6.36032 9.75 6.55109 9.75 6.75V7.5H8.25V6.75ZM11.25 12H6.75V9H11.25V12ZM2.25 7.5C2.44891 7.5 2.63968 7.42098 2.78033 7.28033C2.92098 7.13968 3 6.94891 3 6.75V3H6.75C6.94891 3 7.13968 2.92098 7.28033 2.78033C7.42098 2.63968 7.5 2.44891 7.5 2.25C7.5 2.05109 7.42098 1.86032 7.28033 1.71967C7.13968 1.57902 6.94891 1.5 6.75 1.5H2.25C2.05109 1.5 1.86032 1.57902 1.71967 1.71967C1.57902 1.86032 1.5 2.05109 1.5 2.25V6.75C1.5 6.94891 1.57902 7.13968 1.71967 7.28033C1.86032 7.42098 2.05109 7.5 2.25 7.5ZM6.75 15H3V11.25C3 11.0511 2.92098 10.8603 2.78033 10.7197C2.63968 10.579 2.44891 10.5 2.25 10.5C2.05109 10.5 1.86032 10.579 1.71967 10.7197C1.57902 10.8603 1.5 11.0511 1.5 11.25V15.75C1.5 15.9489 1.57902 16.1397 1.71967 16.2803C1.86032 16.421 2.05109 16.5 2.25 16.5H6.75C6.94891 16.5 7.13968 16.421 7.28033 16.2803C7.42098 16.1397 7.5 15.9489 7.5 15.75C7.5 15.5511 7.42098 15.3603 7.28033 15.2197C7.13968 15.079 6.94891 15 6.75 15Z" fill="black" fill-opacity="0.8"/>
</svg>
