<svg width="17" height="14" viewBox="0 0 17 14" fill="none" xmlns="http://www.w3.org/2000/svg">
<path d="M8.475 7.165C8.87518 6.8186 9.19616 6.39016 9.41616 5.90877C9.63615 5.42737 9.75001 4.90428 9.75 4.375C9.75 3.38044 9.35491 2.42661 8.65165 1.72335C7.94839 1.02009 6.99456 0.625 6 0.625C5.00544 0.625 4.05161 1.02009 3.34835 1.72335C2.64509 2.42661 2.25 3.38044 2.25 4.375C2.24999 4.90428 2.36385 5.42737 2.58384 5.90877C2.80384 6.39016 3.12482 6.8186 3.525 7.165C2.47511 7.64041 1.58435 8.40815 0.959235 9.37641C0.334121 10.3447 0.00110389 11.4725 0 12.625C0 12.8239 0.0790176 13.0147 0.21967 13.1553C0.360322 13.296 0.551088 13.375 0.75 13.375C0.948912 13.375 1.13968 13.296 1.28033 13.1553C1.42098 13.0147 1.5 12.8239 1.5 12.625C1.5 11.4315 1.97411 10.2869 2.81802 9.44302C3.66193 8.59911 4.80653 8.125 6 8.125C7.19347 8.125 8.33807 8.59911 9.18198 9.44302C10.0259 10.2869 10.5 11.4315 10.5 12.625C10.5 12.8239 10.579 13.0147 10.7197 13.1553C10.8603 13.296 11.0511 13.375 11.25 13.375C11.4489 13.375 11.6397 13.296 11.7803 13.1553C11.921 13.0147 12 12.8239 12 12.625C11.9989 11.4725 11.6659 10.3447 11.0408 9.37641C10.4157 8.40815 9.5249 7.64041 8.475 7.165ZM6 6.625C5.55499 6.625 5.11998 6.49304 4.74997 6.24581C4.37996 5.99857 4.09157 5.64717 3.92127 5.23604C3.75097 4.8249 3.70642 4.3725 3.79323 3.93605C3.88005 3.49959 4.09434 3.09868 4.40901 2.78401C4.72368 2.46934 5.12459 2.25505 5.56105 2.16823C5.9975 2.08142 6.4499 2.12597 6.86104 2.29627C7.27217 2.46657 7.62357 2.75496 7.87081 3.12497C8.11804 3.49498 8.25 3.92999 8.25 4.375C8.25 4.97174 8.01295 5.54403 7.59099 5.96599C7.16903 6.38795 6.59674 6.625 6 6.625ZM13.305 6.865C13.785 6.3245 14.0985 5.65679 14.2079 4.94225C14.3172 4.22772 14.2177 3.49681 13.9213 2.8375C13.625 2.17819 13.1443 1.6186 12.5374 1.22607C11.9304 0.833538 11.2229 0.624807 10.5 0.625C10.3011 0.625 10.1103 0.704018 9.96967 0.84467C9.82902 0.985322 9.75 1.17609 9.75 1.375C9.75 1.57391 9.82902 1.76468 9.96967 1.90533C10.1103 2.04598 10.3011 2.125 10.5 2.125C11.0967 2.125 11.669 2.36205 12.091 2.78401C12.5129 3.20597 12.75 3.77826 12.75 4.375C12.7489 4.76893 12.6445 5.15568 12.447 5.49657C12.2496 5.83745 11.9662 6.12054 11.625 6.3175C11.5138 6.38164 11.4209 6.47325 11.3553 6.58356C11.2896 6.69386 11.2534 6.81918 11.25 6.9475C11.2469 7.07482 11.2762 7.20085 11.3352 7.31369C11.3943 7.42654 11.4811 7.52249 11.5875 7.5925L11.88 7.7875L11.9775 7.84C12.8815 8.26879 13.6442 8.94699 14.1757 9.79474C14.7072 10.6425 14.9854 11.6245 14.9775 12.625C14.9775 12.8239 15.0565 13.0147 15.1972 13.1553C15.3378 13.296 15.5286 13.375 15.7275 13.375C15.9264 13.375 16.1172 13.296 16.2578 13.1553C16.3985 13.0147 16.4775 12.8239 16.4775 12.625C16.4836 11.4741 16.1954 10.3407 15.6401 9.33255C15.0848 8.3244 14.281 7.47498 13.305 6.865Z" fill="black" fill-opacity="0.8"/>
</svg>
