<svg width="18" height="18" viewBox="0 0 18 18" fill="none" xmlns="http://www.w3.org/2000/svg">
<path d="M12.6299 8.72268C12.9303 8.7264 13.2284 8.66991 13.5066 8.55656C13.7849 8.4432 14.0376 8.27528 14.2499 8.06268L16.3724 5.94018C16.5121 5.79966 16.5905 5.60957 16.5905 5.41143C16.5905 5.21329 16.5121 5.0232 16.3724 4.88268C16.3026 4.81238 16.2197 4.75659 16.1283 4.71851C16.0369 4.68043 15.9389 4.66083 15.8399 4.66083C15.7409 4.66083 15.6428 4.68043 15.5514 4.71851C15.46 4.75659 15.3771 4.81238 15.3074 4.88268L13.1624 6.99768C13.0926 7.06797 13.0097 7.12377 12.9183 7.16185C12.8269 7.19992 12.7289 7.21953 12.6299 7.21953C12.5309 7.21953 12.4328 7.19992 12.3414 7.16185C12.25 7.12377 12.1671 7.06797 12.0974 6.99768L14.7524 4.35018C14.8223 4.28025 14.8778 4.19723 14.9156 4.10587C14.9535 4.0145 14.9729 3.91657 14.9729 3.81768C14.9729 3.71878 14.9535 3.62086 14.9156 3.52949C14.8778 3.43812 14.8223 3.35511 14.7524 3.28518C14.6824 3.21525 14.5994 3.15978 14.5081 3.12193C14.4167 3.08409 14.3188 3.06461 14.2199 3.06461C14.121 3.06461 14.023 3.08409 13.9317 3.12193C13.8403 3.15978 13.7573 3.21525 13.6874 3.28518L11.0399 5.94018C10.9002 5.79966 10.8218 5.60957 10.8218 5.41143C10.8218 5.21329 10.9002 5.0232 11.0399 4.88268L13.1624 2.76018C13.2323 2.69025 13.2878 2.60723 13.3256 2.51587C13.3635 2.4245 13.3829 2.32657 13.3829 2.22768C13.3829 2.12878 13.3635 2.03086 13.3256 1.93949C13.2878 1.84812 13.2323 1.76511 13.1624 1.69518C13.0924 1.62525 13.0094 1.56978 12.9181 1.53193C12.8267 1.49409 12.7288 1.47461 12.6299 1.47461C12.531 1.47461 12.433 1.49409 12.3417 1.53193C12.2503 1.56978 12.1673 1.62525 12.0974 1.69518L9.97487 3.81768C9.55352 4.23955 9.31685 4.81143 9.31685 5.40768C9.31685 6.00393 9.55352 6.5758 9.97487 6.99768L8.99987 7.96518L2.79737 1.74018L2.72237 1.69518C2.68403 1.66173 2.64109 1.63395 2.59487 1.61268L2.45987 1.56018L2.36987 1.50018H2.31737H2.16737C2.12265 1.49303 2.07708 1.49303 2.03237 1.50018C1.98696 1.5167 1.94406 1.53942 1.90487 1.56768L1.78487 1.64268H1.73237L1.68737 1.71768C1.65563 1.75728 1.62798 1.8 1.60487 1.84518C1.5829 1.89091 1.56532 1.93863 1.55237 1.98768C1.55237 1.98768 1.55237 2.04018 1.55237 2.07018C1.37037 3.33874 1.48641 4.63225 1.89128 5.84816C2.29615 7.06408 2.97872 8.16895 3.88487 9.07518L5.86487 11.0477L1.80737 15.0977C1.73707 15.1674 1.68128 15.2504 1.6432 15.3417C1.60512 15.4331 1.58552 15.5312 1.58552 15.6302C1.58552 15.7292 1.60512 15.8272 1.6432 15.9186C1.68128 16.01 1.73707 16.093 1.80737 16.1627C1.87745 16.2322 1.96056 16.2872 2.05194 16.3245C2.14332 16.3618 2.24116 16.3807 2.33987 16.3802C2.43857 16.3807 2.53642 16.3618 2.6278 16.3245C2.71918 16.2872 2.80229 16.2322 2.87237 16.1627L7.42487 11.6777L9.54737 9.55518L11.0474 8.05518C11.4659 8.47818 12.0349 8.71818 12.6299 8.72268ZM6.89237 10.0877L4.91987 8.10768C3.83871 7.01173 3.16175 5.58113 2.99987 4.05018L7.95737 9.00018L6.89237 10.0877ZM11.5724 10.5152C11.4311 10.373 11.2392 10.2927 11.0388 10.292C10.8383 10.2913 10.6458 10.3702 10.5036 10.5114C10.3614 10.6527 10.2811 10.8446 10.2804 11.045C10.2797 11.2455 10.3586 11.438 10.4999 11.5802L15.2249 16.3052C15.3681 16.4355 15.5563 16.5054 15.7499 16.5002C15.8486 16.5007 15.9464 16.4818 16.0378 16.4445C16.1292 16.4072 16.2123 16.3522 16.2824 16.2827C16.3527 16.213 16.4085 16.13 16.4465 16.0386C16.4846 15.9472 16.5042 15.8492 16.5042 15.7502C16.5042 15.6512 16.4846 15.5531 16.4465 15.4617C16.4085 15.3704 16.3527 15.2874 16.2824 15.2177L11.5724 10.5152Z" fill="black" fill-opacity="0.8"/>
</svg>
