<svg width="18" height="18" viewBox="0 0 18 18" fill="none" xmlns="http://www.w3.org/2000/svg">
<path d="M13.5 9.1125V2.25C13.5 2.05109 13.421 1.86032 13.2803 1.71967C13.1397 1.57902 12.9489 1.5 12.75 1.5C12.5511 1.5 12.3603 1.57902 12.2197 1.71967C12.079 1.86032 12 2.05109 12 2.25V9.1125C11.3505 9.3011 10.7798 9.69566 10.374 10.2367C9.96818 10.7778 9.74919 11.4361 9.75 12.1125C9.75 13.65 10.89 16.4625 12.75 16.4625C14.61 16.4625 15.75 13.65 15.75 12.1125C15.7508 11.4361 15.5318 10.7778 15.126 10.2367C14.7202 9.69566 14.1495 9.3011 13.5 9.1125ZM12.75 15C12.15 15 11.25 13.2975 11.25 12.15C11.2316 11.7327 11.379 11.325 11.66 11.0159C11.941 10.7068 12.3328 10.5214 12.75 10.5C13.1672 10.5214 13.559 10.7068 13.84 11.0159C14.121 11.325 14.2684 11.7327 14.25 12.15C14.25 13.2975 13.35 15 12.75 15ZM7.5 1.5C7.30109 1.5 7.11032 1.57902 6.96967 1.71967C6.82902 1.86032 6.75 2.05109 6.75 2.25V6.345L6 6.8475V2.25C6 2.05109 5.92098 1.86032 5.78033 1.71967C5.63968 1.57902 5.44891 1.5 5.25 1.5C5.05109 1.5 4.86032 1.57902 4.71967 1.71967C4.57902 1.86032 4.5 2.05109 4.5 2.25V6.8475L3.75 6.345V2.25C3.75 2.05109 3.67098 1.86032 3.53033 1.71967C3.38968 1.57902 3.19891 1.5 3 1.5C2.80109 1.5 2.61032 1.57902 2.46967 1.71967C2.32902 1.86032 2.25 2.05109 2.25 2.25V6.75C2.25064 6.87353 2.28178 6.99499 2.34066 7.10359C2.39954 7.21219 2.48433 7.30456 2.5875 7.3725L4.5 8.655V15.75C4.5 15.9489 4.57902 16.1397 4.71967 16.2803C4.86032 16.421 5.05109 16.5 5.25 16.5C5.44891 16.5 5.63968 16.421 5.78033 16.2803C5.92098 16.1397 6 15.9489 6 15.75V8.655L7.9125 7.3725C8.01567 7.30456 8.10046 7.21219 8.15934 7.10359C8.21822 6.99499 8.24936 6.87353 8.25 6.75V2.25C8.25 2.05109 8.17098 1.86032 8.03033 1.71967C7.88968 1.57902 7.69891 1.5 7.5 1.5Z" fill="black" fill-opacity="0.8"/>
</svg>
