<svg width="18" height="18" viewBox="0 0 18 18" fill="none" xmlns="http://www.w3.org/2000/svg">
<path d="M8.98838 5.40209C8.27769 5.40209 7.58297 5.6131 6.99206 6.00844C6.40115 6.40379 5.9406 6.9657 5.66863 7.62314C5.39666 8.28057 5.32551 9.00399 5.46415 9.70192C5.6028 10.3998 5.94502 11.0409 6.44755 11.5441C6.95008 12.0473 7.59034 12.39 8.28736 12.5288C8.98439 12.6676 9.70688 12.5964 10.3635 12.324C11.02 12.0517 11.5812 11.5906 11.9761 10.9989C12.3709 10.4072 12.5816 9.7116 12.5816 9C12.5816 8.04577 12.2031 7.13063 11.5292 6.45589C10.8553 5.78115 9.94137 5.40209 8.98838 5.40209ZM8.98838 10.799C8.63303 10.799 8.28568 10.6934 7.99022 10.4958C7.69477 10.2981 7.46449 10.0171 7.3285 9.68843C7.19252 9.35971 7.15694 8.998 7.22626 8.64904C7.29559 8.30008 7.4667 7.97953 7.71796 7.72795C7.96923 7.47636 8.28936 7.30502 8.63787 7.23561C8.98638 7.1662 9.34763 7.20182 9.67592 7.33798C10.0042 7.47414 10.2848 7.70472 10.4822 8.00055C10.6796 8.29639 10.785 8.6442 10.785 9C10.785 9.47711 10.5957 9.93468 10.2588 10.2721C9.92185 10.6094 9.46487 10.799 8.98838 10.799ZM17.711 8.36137L15.6 6.30156V3.27932C15.6 3.04076 15.5053 2.81197 15.3369 2.64329C15.1684 2.4746 14.9399 2.37984 14.7017 2.37984H11.7282L9.62618 0.266064C9.54267 0.181757 9.44332 0.114841 9.33385 0.0691761C9.22438 0.0235108 9.10696 0 8.98838 0C8.86979 0 8.75237 0.0235108 8.6429 0.0691761C8.53344 0.114841 8.43408 0.181757 8.35057 0.266064L6.29343 2.37984H3.27508C3.03683 2.37984 2.80834 2.4746 2.63988 2.64329C2.47141 2.81197 2.37676 3.04076 2.37676 3.27932V6.30156L0.265721 8.36137C0.181523 8.44499 0.114693 8.54447 0.0690868 8.65408C0.0234804 8.76369 0 8.88126 0 9C0 9.11874 0.0234804 9.23631 0.0690868 9.34592C0.114693 9.45553 0.181523 9.55501 0.265721 9.63863L2.37676 11.7434V14.7207C2.37676 14.9592 2.47141 15.188 2.63988 15.3567C2.80834 15.5254 3.03683 15.6202 3.27508 15.6202H6.29343L8.39549 17.7339C8.479 17.8182 8.57835 17.8852 8.68782 17.9308C8.79729 17.9765 8.9147 18 9.03329 18C9.15188 18 9.26929 17.9765 9.37876 17.9308C9.48823 17.8852 9.58759 17.8182 9.6711 17.7339L11.7732 15.6202H14.7466C14.9848 15.6202 15.2133 15.5254 15.3818 15.3567C15.5503 15.188 15.6449 14.9592 15.6449 14.7207V11.7434L17.7559 9.63863C17.8373 9.55208 17.9007 9.45025 17.9425 9.33902C17.9843 9.2278 18.0036 9.10939 17.9994 8.99062C17.9953 8.87186 17.9676 8.7551 17.9181 8.6471C17.8686 8.53909 17.7982 8.44198 17.711 8.36137ZM14.0728 10.736C13.988 10.8193 13.9204 10.9186 13.8742 11.0283C13.8279 11.1379 13.8038 11.2556 13.8034 11.3746V13.8212H11.3599C11.2411 13.8217 11.1235 13.8458 11.014 13.8921C10.9045 13.9384 10.8053 14.0061 10.7221 14.091L8.98838 15.827L7.25462 14.091C7.17143 14.0061 7.07221 13.9384 6.96273 13.8921C6.85325 13.8458 6.73567 13.8217 6.61682 13.8212H4.1734V11.3746C4.1729 11.2556 4.14883 11.1379 4.10257 11.0283C4.05631 10.9186 3.98878 10.8193 3.9039 10.736L2.17015 9L3.9039 7.26401C3.98878 7.1807 4.05631 7.08136 4.10257 6.97174C4.14883 6.86211 4.1729 6.74438 4.1734 6.62538V4.1788H6.61682C6.73567 4.1783 6.85325 4.1542 6.96273 4.10788C7.07221 4.06156 7.17143 3.99394 7.25462 3.90895L8.98838 2.17296L10.7221 3.90895C10.8053 3.99394 10.9045 4.06156 11.014 4.10788C11.1235 4.1542 11.2411 4.1783 11.3599 4.1788H13.8034V6.62538C13.8038 6.74438 13.8279 6.86211 13.8742 6.97174C13.9204 7.08136 13.988 7.1807 14.0728 7.26401L15.8066 9L14.0728 10.736Z" fill="black" fill-opacity="0.8"/>
</svg>
