<svg width="18" height="16" viewBox="0 0 18 16" fill="none" xmlns="http://www.w3.org/2000/svg">
<path d="M9.25803 8.20706C9.69518 7.77236 10.0458 7.23471 10.2861 6.63061C10.5265 6.0265 10.6508 5.37008 10.6508 4.70588C10.6508 3.4578 10.2192 2.26085 9.451 1.37832C8.68276 0.495797 7.64081 1.68387e-07 6.55435 1.68387e-07C5.4679 1.68387e-07 4.42595 0.495797 3.65771 1.37832C2.88947 2.26085 2.45788 3.4578 2.45788 4.70588C2.45788 5.37008 2.58225 6.0265 2.82257 6.63061C3.06289 7.23471 3.41353 7.77236 3.85068 8.20706C2.70379 8.80366 1.73073 9.76709 1.04786 10.9822C0.364992 12.1972 0.00120588 13.6125 0 15.0588C0 15.3084 0.0863182 15.5478 0.239966 15.7243C0.393613 15.9008 0.602004 16 0.819294 16C1.03658 16 1.24498 15.9008 1.39862 15.7243C1.55227 15.5478 1.63859 15.3084 1.63859 15.0588C1.63859 13.5611 2.1565 12.1248 3.07838 11.0658C4.00027 10.0067 5.25061 9.41177 6.55435 9.41177C7.8581 9.41177 9.10844 10.0067 10.0303 11.0658C10.9522 12.1248 11.4701 13.5611 11.4701 15.0588C11.4701 15.3084 11.5564 15.5478 11.7101 15.7243C11.8637 15.9008 12.0721 16 12.2894 16C12.5067 16 12.7151 15.9008 12.8687 15.7243C13.0224 15.5478 13.1087 15.3084 13.1087 15.0588C13.1075 13.6125 12.7437 12.1972 12.0608 10.9822C11.378 9.76709 10.4049 8.80366 9.25803 8.20706ZM6.55435 7.52941C6.06823 7.52941 5.59302 7.36381 5.18883 7.05356C4.78463 6.74331 4.4696 6.30233 4.28357 5.7864C4.09754 5.27047 4.04886 4.70275 4.1437 4.15504C4.23854 3.60733 4.47263 3.10422 4.81637 2.70935C5.16011 2.31447 5.59806 2.04555 6.07485 1.93661C6.55163 1.82766 7.04583 1.88358 7.49495 2.09728C7.94407 2.31099 8.32793 2.67289 8.59801 3.13721C8.86808 3.60154 9.01224 4.14744 9.01224 4.70588C9.01224 5.45473 8.75328 6.1729 8.29234 6.70242C7.8314 7.23193 7.20623 7.52941 6.55435 7.52941ZM14.5343 7.83059C15.0586 7.15231 15.4011 6.3144 15.5205 5.41773C15.64 4.52106 15.5313 3.60383 15.2075 2.77647C14.8838 1.94911 14.3588 1.24687 13.6957 0.75428C13.0326 0.261694 12.2598 -0.000242447 11.4701 1.68387e-07C11.2528 1.68387e-07 11.0444 0.0991595 10.8908 0.275664C10.7371 0.452169 10.6508 0.691561 10.6508 0.941177C10.6508 1.19079 10.7371 1.43018 10.8908 1.60669C11.0444 1.78319 11.2528 1.88235 11.4701 1.88235C12.122 1.88235 12.7472 2.17983 13.2081 2.70935C13.669 3.23886 13.928 3.95704 13.928 4.70588C13.9268 5.20023 13.8127 5.68556 13.5971 6.11334C13.3814 6.54112 13.0717 6.89636 12.6991 7.14353C12.5776 7.22402 12.4761 7.33898 12.4044 7.4774C12.3327 7.61583 12.2931 7.77308 12.2894 7.93412C12.286 8.09389 12.318 8.25204 12.3825 8.39365C12.447 8.53526 12.5419 8.65567 12.6581 8.74353L12.9776 8.98824L13.0841 9.05412C14.0717 9.59221 14.9049 10.4433 15.4855 11.5071C16.0661 12.571 16.3699 13.8032 16.3613 15.0588C16.3613 15.3084 16.4476 15.5478 16.6013 15.7243C16.7549 15.9008 16.9633 16 17.1806 16C17.3979 16 17.6063 15.9008 17.7599 15.7243C17.9136 15.5478 17.9999 15.3084 17.9999 15.0588C18.0066 13.6145 17.6917 12.1922 17.0851 10.9271C16.4786 9.662 15.6005 8.59606 14.5343 7.83059Z" fill="black" fill-opacity="0.8"/>
</svg>
