<svg width="57" height="42" viewBox="0 0 57 42" fill="none" xmlns="http://www.w3.org/2000/svg">
<rect width="57" height="42" rx="4" fill="#00893F"/>
<path d="M32.646 21.7155C33.6264 20.9442 34.342 19.8864 34.6933 18.6894C35.0445 17.4925 35.014 16.2158 34.6058 15.037C34.1977 13.8582 33.4323 12.8359 32.4161 12.1124C31.3999 11.3888 30.1835 11 28.936 11C27.6886 11 26.4721 11.3888 25.456 12.1124C24.4398 12.8359 23.6744 13.8582 23.2662 15.037C22.8581 16.2158 22.8275 17.4925 23.1788 18.6894C23.53 19.8864 24.2456 20.9442 25.226 21.7155C23.5461 22.3885 22.0803 23.5048 20.9849 24.9454C19.8895 26.386 19.2056 28.0968 19.006 29.8955C18.9916 30.0268 19.0031 30.1597 19.0401 30.2866C19.077 30.4134 19.1385 30.5317 19.2211 30.6348C19.3881 30.843 19.6308 30.9763 19.896 31.0055C20.1612 31.0347 20.4272 30.9573 20.6354 30.7904C20.8435 30.6235 20.9769 30.3807 21.006 30.1155C21.2256 28.1607 22.1577 26.3553 23.6243 25.0443C25.0908 23.7333 26.9889 23.0085 28.956 23.0085C30.9231 23.0085 32.8213 23.7333 34.2878 25.0443C35.7543 26.3553 36.6864 28.1607 36.906 30.1155C36.9332 30.3612 37.0505 30.5882 37.2351 30.7525C37.4198 30.9169 37.6588 31.007 37.906 31.0055H38.016C38.2782 30.9753 38.5178 30.8428 38.6826 30.6367C38.8474 30.4307 38.9241 30.1679 38.896 29.9055C38.6955 28.1017 38.0079 26.3865 36.9069 24.9437C35.8059 23.5009 34.3329 22.385 32.646 21.7155ZM28.936 21.0055C28.1449 21.0055 27.3715 20.7709 26.7138 20.3314C26.056 19.8918 25.5433 19.2671 25.2405 18.5362C24.9378 17.8053 24.8585 17.0011 25.0129 16.2251C25.1672 15.4492 25.5482 14.7365 26.1076 14.1771C26.667 13.6177 27.3797 13.2367 28.1557 13.0824C28.9316 12.928 29.7359 13.0072 30.4668 13.31C31.1977 13.6127 31.8224 14.1254 32.2619 14.7832C32.7014 15.441 32.936 16.2144 32.936 17.0055C32.936 18.0664 32.5146 19.0838 31.7645 19.8339C31.0143 20.5841 29.9969 21.0055 28.936 21.0055Z" fill="white" fill-opacity="0.8"/>
</svg>
