<svg width="18" height="18" viewBox="0 0 18 18" fill="none" xmlns="http://www.w3.org/2000/svg">
<path d="M16.3353 2.715C16.4224 2.60524 16.4769 2.47329 16.4928 2.33411C16.5087 2.19493 16.4854 2.05407 16.4253 1.9275C16.3645 1.79987 16.2689 1.69202 16.1495 1.61638C16.03 1.54074 15.8917 1.5004 15.7503 1.5H2.25031C2.10894 1.5004 1.97057 1.54074 1.85114 1.61638C1.73172 1.69202 1.6361 1.79987 1.57531 1.9275C1.51527 2.05407 1.49187 2.19493 1.50778 2.33411C1.52369 2.47329 1.57826 2.60524 1.66531 2.715L8.25031 10.95V15H3.93781C3.7389 15 3.54813 15.079 3.40748 15.2197C3.26683 15.3603 3.18781 15.5511 3.18781 15.75C3.18781 15.9489 3.26683 16.1397 3.40748 16.2803C3.54813 16.421 3.7389 16.5 3.93781 16.5H14.0628C14.2617 16.5 14.4525 16.421 14.5931 16.2803C14.7338 16.1397 14.8128 15.9489 14.8128 15.75C14.8128 15.5511 14.7338 15.3603 14.5931 15.2197C14.4525 15.079 14.2617 15 14.0628 15H9.75031V10.95L16.3353 2.715ZM3.81031 3H14.1903L12.3903 5.25H5.64031L3.81031 3ZM9.00031 9.4875L6.81031 6.75H11.1903L9.00031 9.4875Z" fill="black" fill-opacity="0.8"/>
</svg>
